<svg xmlns="http://www.w3.org/2000/svg" width="48" height="48" fill="none">
    <g clip-path="url(#a)">
        <path fill="url(#b)"
              d="M15.4 45.1C9.8 43.1-.9 34.5 1.2 21.9 3.3 9.3 14.6-.6 28 0c13.4.6 19.4 14.5 19.2 25.5-.2 11-7.6 28.4-31.8 19.6Z"/>
        <path fill="#FDFDFD" fill-rule="evenodd"
              d="M23.161 9.86a.75.75 0 0 1 1.06 0l9.476 9.474a.75.75 0 0 1 0 1.061l-9.475 9.475a.75.75 0 0 1-1.06 0l-9.476-9.475a.75.75 0 0 1 0-1.06l9.475-9.476Zm.53 1.59-8.414 8.415 8.414 8.414 8.415-8.414-8.415-8.415Z"
              clip-rule="evenodd"/>
        <path fill="#FDFDFD" fill-rule="evenodd"
              d="M23.7 28.45a.75.75 0 0 1 .75.75v9.3a.75.75 0 0 1-.75.75h-2.9a.75.75 0 0 1 0-1.5h2.15V29.2a.75.75 0 0 1 .75-.75ZM32.653 19.387a.75.75 0 0 1 1.06-.034l5.984 5.615 1.487-1.412a.75.75 0 0 1 1.033 1.088l-2 1.9a.75.75 0 0 1-1.03.003l-6.5-6.1a.75.75 0 0 1-.034-1.06ZM20 19.25a1.05 1.05 0 1 0 0 2.1 1.05 1.05 0 0 0 0-2.1Zm-2.55 1.05a2.55 2.55 0 1 1 5.1 0 2.55 2.55 0 0 1-5.1 0ZM23.8 16.35a.35.35 0 1 0 0 .7.35.35 0 0 0 0-.7Zm-1.85.35a1.85 1.85 0 1 1 3.7 0 1.85 1.85 0 0 1-3.7 0Z"
              clip-rule="evenodd"/>
    </g>
    <defs>
        <linearGradient id="b" x1="1" x2="47" y1="0" y2="48" gradientUnits="userSpaceOnUse">
            <stop stop-color="#A62E99"/>
            <stop offset="1" stop-color="#35179C"/>
        </linearGradient>
        <clipPath id="a">
            <path fill="#fff" d="M0 0h48v48H0z"/>
        </clipPath>
    </defs>
</svg>
